<svg width="25" height="25" viewBox="0 0 25 25" fill="none" xmlns="http://www.w3.org/2000/svg">
<path fill-rule="evenodd" clip-rule="evenodd" d="M5 3.29053C4.17157 3.29053 3.5 3.9621 3.5 4.79053V19.7905C3.5 20.6189 4.17157 21.2905 5 21.2905H20C20.8284 21.2905 21.5 20.6189 21.5 19.7905V4.79053C21.5 3.9621 20.8284 3.29053 20 3.29053H5ZM9.02076 7.29325C9.02639 8.2495 8.31061 8.83872 7.46123 8.8345C6.66107 8.83028 5.96357 8.19325 5.96779 7.29466C5.97201 6.4495 6.63998 5.77028 7.50764 5.78997C8.38795 5.80966 9.02639 6.45513 9.02076 7.29325ZM12.7797 10.0523H10.2597H10.2583V18.6121H12.9217V18.4124C12.9217 18.0325 12.9214 17.6525 12.9211 17.2724C12.9203 16.2586 12.9194 15.2437 12.9246 14.2302C12.926 13.9841 12.9372 13.7282 13.0005 13.4933C13.2381 12.6158 14.0271 12.0491 14.9074 12.1884C15.4727 12.2769 15.8467 12.6046 16.0042 13.1376C16.1013 13.4708 16.1449 13.8294 16.1491 14.1768C16.1605 15.2244 16.1589 16.272 16.1573 17.3197C16.1567 17.6895 16.1561 18.0595 16.1561 18.4293V18.6107H18.828V18.4054C18.828 17.9534 18.8278 17.5015 18.8275 17.0496C18.827 15.9201 18.8264 14.7906 18.8294 13.6607C18.8308 13.1502 18.776 12.6468 18.6508 12.1532C18.4638 11.4191 18.0771 10.8116 17.4485 10.3729C17.0027 10.0607 16.5133 9.85963 15.9663 9.83713C15.904 9.83454 15.8412 9.83115 15.7781 9.82774C15.4984 9.81262 15.2141 9.79726 14.9467 9.85119C14.1817 10.0045 13.5096 10.3546 13.0019 10.9719C12.9429 11.0427 12.8852 11.1146 12.7991 11.2219L12.7797 11.2462V10.0523ZM6.18164 18.6149H8.83242V10.0579H6.18164V18.6149Z" fill="black"/>
</svg>
